<?xml version="1.0" standalone="no"?>
<!DOCTYPE svg PUBLIC "-//W3C//DTD SVG 20010904//EN"
 "http://www.w3.org/TR/2001/REC-SVG-20010904/DTD/svg10.dtd">
<svg version="1.0" xmlns="http://www.w3.org/2000/svg"
 width="260.000000pt" height="260.000000pt" viewBox="0 0 260.000000 260.000000"
 preserveAspectRatio="xMidYMid meet">
<metadata>
Created by potrace 1.14, written by Peter Selinger 2001-2017
</metadata>
<g transform="translate(0.000000,260.000000) scale(0.100000,-0.100000)"
fill="#000000" stroke="none">
<path d="M1160 2400 c-159 -33 -189 -43 -295 -101 -113 -61 -165 -101 -289
-227 -142 -143 -175 -194 -305 -472 -91 -197 -111 -257 -109 -335 1 -27 0
-115 -1 -195 -4 -198 12 -253 120 -416 194 -294 307 -389 568 -474 139 -46
171 -53 310 -66 186 -17 273 -18 378 -4 86 12 274 65 313 88 104 64 148 99
245 196 219 221 309 373 334 561 6 39 19 122 30 185 32 176 29 316 -10 460
-16 63 -30 125 -30 138 1 12 -4 22 -9 22 -5 0 -24 28 -41 63 -47 93 -77 132
-185 242 -126 128 -187 176 -294 230 -94 47 -140 61 -344 105 -170 36 -213 36
-386 0z m376 -408 c12 -9 27 -27 32 -38 15 -28 15 -1003 1 -1094 -5 -36 -21
-87 -33 -115 -40 -84 -145 -175 -203 -175 -10 0 -24 -5 -30 -11 -8 -8 -42 -10
-100 -7 -68 3 -100 10 -143 30 -55 27 -110 69 -110 86 0 5 -14 21 -31 36 -35
32 -68 98 -69 139 0 63 48 110 112 110 26 0 39 -8 68 -43 19 -24 54 -63 76
-86 37 -40 46 -44 88 -44 54 0 79 11 112 49 43 48 46 98 39 601 -4 258 -4 485
-1 504 5 24 16 40 39 54 42 26 124 28 153 4z"/>
</g>
</svg>
